<?xml version="1.0" encoding="UTF-8"?>
<svg width="131px" height="52px" viewBox="0 0 131 52" version="1.1" xmlns="http://www.w3.org/2000/svg" xmlns:xlink="http://www.w3.org/1999/xlink">
    <title>Group 3</title>
    <g id="Symbols" stroke="none" stroke-width="1" fill="none" fill-rule="evenodd">
        <g id="Group-4" fill="#FFFFFF">
            <g id="Group-3">
                <path d="M23.8760563,29.1092604 C23.8760563,30.2952688 23.4612036,31.2261119 22.6301811,31.9011093 C21.8011341,32.576787 20.6560088,32.9142857 19.1967807,32.9142857 C17.7362356,32.9142857 16.5410646,32.6802141 15.6112676,32.2113903 L15.6112676,30.1496545 C16.1993049,30.4354396 16.825535,30.6599851 17.4866654,30.8246518 C18.1497714,30.9886381 18.766124,31.0709714 19.3370404,31.0709714 C20.1733309,31.0709714 20.7896836,30.9069852 21.1874154,30.5783322 C21.5851472,30.2496793 21.7833547,29.8087536 21.7833547,29.2548747 C21.7833547,28.7561116 21.6009512,28.3328773 21.2354856,27.9865329 C20.8713371,27.6395081 20.1173587,27.2292023 18.9755259,26.754935 C17.7987928,26.2622958 16.9671118,25.6995712 16.4844339,25.0667612 C16.0024145,24.4339512 15.7607463,23.6738987 15.7607463,22.7852429 C15.7607463,21.6720417 16.1439912,20.7963143 16.9091641,20.1573803 C17.6743369,19.5191268 18.7022499,19.2 19.9909274,19.2 C21.2269252,19.2 22.4569965,19.4796612 23.6811414,20.0389836 L23.010792,21.8183365 C21.8623742,21.3202537 20.8384123,21.0705319 19.9382477,21.0705319 C19.2540699,21.0705319 18.7364917,21.2243116 18.3835376,21.5311904 C18.0305835,21.8380692 17.853448,22.2442924 17.853448,22.7491796 C17.853448,23.0962044 17.9245656,23.3921962 18.0661423,23.6385158 C18.2070605,23.8855158 18.4395098,24.1182266 18.76349,24.3366481 C19.0868118,24.5557501 19.6695811,24.844257 20.5124566,25.2035298 C21.4593744,25.6111139 22.1540882,25.9914803 22.5959393,26.3439487 C23.0377904,26.6970975 23.3611121,27.0965163 23.566563,27.5394833 C23.7733309,27.9831307 23.8760563,28.5070702 23.8760563,29.1092604" id="Fill-1"></path>
                <path d="M28.8977539,25.8979998 L30.1025934,25.8979998 C31.2671065,25.8979998 32.1210356,25.6972347 32.6643807,25.297803 C33.2084333,24.8976719 33.4808134,24.2715925 33.4808134,23.420964 C33.4808134,22.6332933 33.2367326,22.0456881 32.7499859,21.6581484 C32.2632392,21.2699093 31.5041125,21.0761395 30.4733132,21.0761395 L28.8977539,21.0761395 L28.8977539,25.8979998 Z M35.8140845,23.3468139 C35.8140845,24.7780522 35.3400725,25.8763144 34.391341,26.6388021 C33.441902,27.4012898 32.0927364,27.7832331 30.3395994,27.7832331 L28.8977539,27.7832331 L28.8977539,32.9142857 L26.6309859,32.9142857 L26.6309859,19.2 L30.6240066,19.2 C32.3580416,19.2 33.6569761,19.5504645 34.5186875,20.2513936 C35.3825213,20.9516231 35.8140845,21.9834299 35.8140845,23.3468139 L35.8140845,23.3468139 Z" id="Fill-3"></path>
                <polygon id="Fill-5" points="37.6507042 32.9142857 39.4873239 32.9142857 39.4873239 19.2 37.6507042 19.2"></polygon>
                <path d="M54.1802817,32.9142857 L51.5292608,32.9142857 L45.0248471,21.986228 L44.9513013,21.986228 L44.9971831,22.5962182 C45.0815246,23.758837 45.1233579,24.8228222 45.1233579,25.7853755 L45.1233579,32.9142857 L43.1605634,32.9142857 L43.1605634,19.2 L45.784595,19.2 L52.2714657,30.0720953 L52.3254442,30.0720953 C52.313299,29.9279921 52.2890087,29.4040442 52.2539227,28.5009509 C52.2168124,27.5971582 52.1992694,26.8920319 52.1992694,26.3855722 L52.1992694,19.2 L54.1802817,19.2 L54.1802817,32.9142857 Z" id="Fill-7"></path>
                <path d="M60.0550925,25.5790141 L61.5830078,25.5790141 C62.6075694,25.5790141 63.3512693,25.3852443 63.810674,24.9970051 C64.271452,24.6094655 64.5021844,24.0344519 64.5021844,23.2719641 C64.5021844,22.4961854 64.252911,21.93866 63.7564244,21.6014865 C63.2592511,21.2636135 62.5093708,21.0950268 61.5095305,21.0950268 L60.0550925,21.0950268 L60.0550925,25.5790141 Z M60.0550925,27.4362663 L60.0550925,32.9142857 L57.8535211,32.9142857 L57.8535211,19.2 L61.6564851,19.2 C63.3938449,19.2 64.6793539,19.5315772 65.5143853,20.1940321 C66.3494168,20.8571866 66.7669325,21.858214 66.7669325,23.1964149 C66.7669325,24.9039676 65.8961925,26.1197508 64.1519656,26.8451634 L67.9549296,32.9142857 L65.4505219,32.9142857 L62.226449,27.4362663 L60.0550925,27.4362663 Z" id="Fill-8"></path>
                <polygon id="Fill-9" points="77.1380282 32.9142857 69.7915493 32.9142857 69.7915493 19.2 77.1380282 19.2 77.1380282 21.0950268 71.915146 21.0950268 71.915146 24.8277189 76.8088243 24.8277189 76.8088243 26.7045579 71.915146 26.7045579 71.915146 31.010165 77.1380282 31.010165"></polygon>
                <path d="M87.4346097,27.1968651 L86.1338941,23.4788349 C86.0390134,23.2294335 85.9080214,22.836522 85.7402099,22.3014934 C85.5716904,21.7664649 85.4562758,21.37425 85.393258,21.1248487 C85.2226143,21.8904689 84.9719593,22.7278443 84.6434171,23.6376714 L83.3901419,27.1968651 L87.4346097,27.1968651 Z M89.4186081,32.9142857 L88.0329247,29.1217138 L82.7252687,29.1217138 L81.3679079,32.9142857 L78.9746479,32.9142857 L84.1683054,19.2 L86.6373284,19.2 L91.8309859,32.9142857 L89.4186081,32.9142857 Z" id="Fill-10"></path>
                <path d="M98.1469959,21.0705319 C96.8969593,21.0705319 95.9136244,21.5141794 95.1983483,22.4028352 C94.4823936,23.2914909 94.1240769,24.5162845 94.1240769,26.0799376 C94.1240769,27.7163979 94.468821,28.9541199 95.1576305,29.7931034 C95.8450827,30.6334479 96.8426689,31.0525995 98.1469959,31.0525995 C98.7109375,31.0525995 99.2572347,30.9961229 99.7852089,30.8838502 C100.312504,30.7715774 100.861516,30.6266435 101.432923,30.4510898 L101.432923,32.3216217 C100.38919,32.7169579 99.2056588,32.9142857 97.8823302,32.9142857 C95.9353405,32.9142857 94.4396399,32.3223022 93.3965855,31.1390155 C92.3528524,29.9564093 91.8309859,28.2641528 91.8309859,26.0615657 C91.8309859,24.6748272 92.0834363,23.4609207 92.5910516,22.4205266 C93.0979882,21.380813 93.8309087,20.5833363 94.7891343,20.0301379 C95.74736,19.4769394 96.8725286,19.2 98.1639616,19.2 C99.5239363,19.2 100.780081,19.4857852 101.932394,20.0573555 L101.149934,21.8734522 C100.701359,21.6604742 100.226318,21.4733529 99.7254894,21.3127689 C99.2260177,21.150824 98.6987221,21.0705319 98.1469959,21.0705319" id="Fill-11"></path>
                <polygon id="Fill-12" points="109.917727 32.9142857 107.721709 32.9142857 107.721709 21.123008 103.769014 21.123008 103.769014 19.2 113.870423 19.2 113.870423 21.123008 109.917727 21.123008"></polygon>
                <path d="M63.809743,48.7747044 C30.2966897,48.7747044 3.13056642,38.5359356 3.13056642,25.9053848 C3.13056642,17.2609092 15.8566861,9.73879961 34.6311617,5.85052966 C35.2049731,7.68078655 36.9195433,9.0090223 38.9457288,9.0090223 C41.4427691,9.0090223 43.4662091,6.99204638 43.4662091,4.50451115 C43.4662091,4.45389866 43.4614044,4.40602199 43.4593453,4.35609346 C49.8213756,3.50252074 56.6700473,3.03606514 63.809743,3.03606514 C97.3207371,3.03606514 124.487547,13.275518 124.487547,25.9053848 C124.487547,38.5359356 97.3207371,48.7747044 63.809743,48.7747044 M65.1996568,1.99714129 C57.5273324,1.99714129 50.165937,2.49847847 43.3282473,3.41771063 C42.8395467,1.45545091 41.0652616,-1.45661261e-12 38.9457288,-1.45661261e-12 C36.4493749,-1.45661261e-12 34.4252486,2.01697591 34.4252486,4.50451115 C34.4252486,4.63856584 34.4341715,4.77056867 34.4458399,4.90188755 C13.945812,9.04800759 7.2475359e-13,17.2089288 7.2475359e-13,26.5989126 C7.2475359e-13,40.1863129 29.1916224,51.2 65.1996568,51.2 C101.208378,51.2 130.4,40.1863129 130.4,26.5989126 C130.4,13.0115123 101.208378,1.99714129 65.1996568,1.99714129" id="Fill-13"></path>
            </g>
        </g>
    </g>
</svg>